HIERARCHY
ROOT joint_Root
{
	OFFSET 0.0 0.0 0.0
	CHANNELS 6 Xposition Yposition Zposition Zrotation Xrotation Yrotation 
	JOINT Hips
	{
		OFFSET 4.5925 91.4895 -427.239
		CHANNELS 6 Xposition Yposition Zposition Zrotation Xrotation Yrotation 
		JOINT Spine
		{
			OFFSET 15.7357 0.0 0.0
			CHANNELS 6 Xposition Yposition Zposition Zrotation Xrotation Yrotation 
			JOINT Chest
			{
				OFFSET 8.98455 -0.406207 0.0
				CHANNELS 6 Xposition Yposition Zposition Zrotation Xrotation Yrotation 
				JOINT Neck
				{
					OFFSET 16.3773 0.0 0.0
					CHANNELS 6 Xposition Yposition Zposition Zrotation Xrotation Yrotation 
					JOINT Head
					{
						OFFSET 6.45672 0.0 0.0
						CHANNELS 6 Xposition Yposition Zposition Zrotation Xrotation Yrotation 
						End Site
						{
							OFFSET 0.0 0.0 0.0
						}
					}
				}
				JOINT Shoulder_L
				{
					OFFSET 12.9942 -0.242716 4.98039
					CHANNELS 6 Xposition Yposition Zposition Zrotation Xrotation Yrotation 
					JOINT UpperArm_L
					{
						OFFSET 5.34809 0.0 0.0
						CHANNELS 6 Xposition Yposition Zposition Zrotation Xrotation Yrotation 
						JOINT LowerArm_L
						{
							OFFSET 24.3286 1.87007e-05 0.0
							CHANNELS 6 Xposition Yposition Zposition Zrotation Xrotation Yrotation 
							JOINT Hand_L
							{
								OFFSET 22.2916 0.0 0.0
								CHANNELS 6 Xposition Yposition Zposition Zrotation Xrotation Yrotation 
								End Site
								{
									OFFSET 0.0 0.0 0.0
								}
							}
						}
					}
				}
				JOINT Shoulder_R
				{
					OFFSET 12.9945 -0.242716 -4.98039
					CHANNELS 6 Xposition Yposition Zposition Zrotation Xrotation Yrotation 
					JOINT UpperArm_R
					{
						OFFSET -5.34813 0.0 0.0
						CHANNELS 6 Xposition Yposition Zposition Zrotation Xrotation Yrotation 
						JOINT LowerArm_R
						{
							OFFSET -24.3289 0.000322201 0.0
							CHANNELS 6 Xposition Yposition Zposition Zrotation Xrotation Yrotation 
							JOINT Hand_R
							{
								OFFSET -22.2915 -0.000108084 0.0
								CHANNELS 6 Xposition Yposition Zposition Zrotation Xrotation Yrotation 
								End Site
								{
									OFFSET 0.0 0.0 0.0
								}
							}
						}
					}
				}
			}
		}
		JOINT UpperLeg_L
		{
			OFFSET -2.19248 -6.46944 0.0
			CHANNELS 6 Xposition Yposition Zposition Zrotation Xrotation Yrotation 
			JOINT LowerLeg_L
			{
				OFFSET 39.0811 0.0 -1.23785e-05
				CHANNELS 6 Xposition Yposition Zposition Zrotation Xrotation Yrotation 
				JOINT Foot_L
				{
					OFFSET 40.9854 0.0 -1.26872e-05
					CHANNELS 6 Xposition Yposition Zposition Zrotation Xrotation Yrotation 
					JOINT Toes_L
					{
						OFFSET 11.7543 0.0 0.0
						CHANNELS 6 Xposition Yposition Zposition Zrotation Xrotation Yrotation 
						End Site
						{
							OFFSET 0.0 0.0 0.0
						}
					}
				}
			}
		}
		JOINT UpperLeg_R
		{
			OFFSET -2.19251 6.46944 0.0
			CHANNELS 6 Xposition Yposition Zposition Zrotation Xrotation Yrotation 
			JOINT LowerLeg_R
			{
				OFFSET -39.0811 -0.00228153 -0.0401928
				CHANNELS 6 Xposition Yposition Zposition Zrotation Xrotation Yrotation 
				JOINT Foot_R
				{
					OFFSET -40.9854 0.0 0.0
					CHANNELS 6 Xposition Yposition Zposition Zrotation Xrotation Yrotation 
					JOINT Toes_R
					{
						OFFSET -11.7543 0.0 0.0
						CHANNELS 6 Xposition Yposition Zposition Zrotation Xrotation Yrotation 
						End Site
						{
							OFFSET 0.0 0.0 0.0
						}
					}
				}
			}
		}
	}
}
MOTION
Frames:	4
Frame Time:	0.0333333
0.000000 0.000000 0.000000 0.000000 0.000000 -0.000000 -0.682820 90.100800 -6.804040 88.989600 -4.246980 11.089300 15.735700 0.000005 -0.000001 87.557700 76.390200 -88.688700 8.984550 -0.406207 -0.000000 19.420300 -1.249820 -2.054430 16.377300 -0.000001 -0.000001 4.621620 -4.326250 2.654030 6.456720 -0.000001 -0.000000 -11.795000 -2.304360 -4.124200 12.994200 -0.242716 4.980390 -91.123400 5.868410 -79.143100 5.348090 -0.000007 -0.000001 -51.628100 35.684400 -32.894000 24.328600 0.000019 0.000005 7.293880 19.654400 -20.833900 22.291600 -0.000001 0.000005 11.474900 5.206100 2.565810 12.994500 -0.242716 -4.980390 89.529200 2.816950 -80.508100 -5.348130 -0.000001 -0.000004 -77.030400 -28.359400 -75.564700 -24.328900 0.000322 -0.000009 13.533200 0.932309 -86.134000 -22.291500 -0.000108 -0.000004 55.486000 5.334800 -0.926188 -2.192480 -6.469440 -0.000000 -174.424000 -12.175000 -6.221490 39.081100 -0.000007 -0.000012 -0.182826 0.251457 36.020000 40.985400 -0.000006 -0.000013 0.262297 4.332600 -68.449700 11.754300 -0.000000 0.000003 -0.000085 -0.000895 -16.612000 -2.192510 6.469440 -0.000001 176.718000 18.457300 174.556000 -39.081100 -0.002282 -0.040193 -0.098088 0.143003 35.333700 -40.985400 0.000008 0.000006 5.774200 11.259300 -69.257100 -11.754300 -0.000006 -0.000006 -0.003684 -0.048110 -18.529900
0.000000 0.000000 0.000000 0.000000 0.000000 -0.000000 -0.667362 90.104900 -6.846110 89.003900 -4.388130 11.081800 15.735700 0.000005 -0.000001 87.555400 76.379900 -88.677800 8.984550 -0.406207 -0.000000 19.440900 -1.251040 -2.036950 16.377300 -0.000001 -0.000001 4.615000 -4.321330 2.648490 6.456720 -0.000001 -0.000000 -11.845700 -2.298220 -4.150730 12.994200 -0.242716 4.980390 -91.127900 5.892320 -79.143300 5.348090 -0.000007 -0.000001 -51.513900 35.676700 -33.057100 24.328600 0.000019 0.000005 7.280160 19.653600 -20.798400 22.291600 -0.000001 0.000005 11.503500 5.208240 2.511890 12.994500 -0.242716 -4.980390 89.531500 2.792090 -80.471800 -5.348130 -0.000001 -0.000004 -75.037700 -27.924400 -75.120500 -24.328900 0.000322 -0.000009 13.812700 0.838288 -86.595800 -22.291500 -0.000108 -0.000004 55.316600 5.340380 -1.090750 -2.192480 -6.469440 -0.000000 -174.426000 -12.295100 -6.221640 39.081100 -0.000007 -0.000012 -0.185516 0.255377 35.996400 40.985400 -0.000006 -0.000013 0.264360 4.303690 -68.424000 11.754300 -0.000000 0.000003 -0.000084 -0.000886 -16.611700 -2.192510 6.469440 -0.000001 176.753000 18.320800 174.489000 -39.081100 -0.002282 -0.040193 -0.092994 0.135829 35.331400 -40.985400 0.000008 0.000006 5.813740 11.254500 -69.218000 -11.754300 -0.000006 -0.000006 -0.003567 -0.046855 -18.478800
0.000000 0.000000 0.000000 0.000000 0.000000 -0.000000 -0.656737 90.104500 -6.891500 89.025500 -4.483690 11.091800 15.735700 0.000005 -0.000001 87.484600 76.361000 -88.603800 8.984550 -0.406207 -0.000000 19.477300 -1.285480 -2.023970 16.377300 -0.000001 -0.000001 4.629440 -4.343420 2.692990 6.456720 -0.000001 -0.000000 -11.889200 -2.272550 -4.176530 12.994200 -0.242716 4.980390 -91.116200 5.870810 -79.215000 5.348090 -0.000007 -0.000001 -51.487000 35.649700 -33.114800 24.328600 0.000019 0.000005 7.312170 19.698900 -20.840700 22.291600 -0.000001 0.000005 11.544900 5.208450 2.506520 12.994500 -0.242716 -4.980390 89.533400 2.784900 -80.485500 -5.348130 -0.000001 -0.000004 -72.383700 -27.393200 -74.660300 -24.328900 0.000322 -0.000009 14.551500 0.665926 -87.437600 -22.291500 -0.000108 -0.000004 55.071900 5.342420 -1.151130 -2.192480 -6.469440 -0.000000 -174.449000 -12.376600 -6.227400 39.081100 -0.000007 -0.000012 -0.179846 0.247617 35.991600 40.985400 -0.000006 -0.000013 0.271790 4.276940 -68.399800 11.754300 -0.000000 0.000003 -0.000076 -0.000811 -16.608800 -2.192510 6.469440 -0.000001 176.733000 18.276200 174.453000 -39.081100 -0.002282 -0.040193 -0.097335 0.141939 35.334000 -40.985400 0.000008 0.000006 5.731640 11.325600 -69.161000 -11.754300 -0.000006 -0.000006 -0.003818 -0.049535 -18.588000
0.000000 0.000000 0.000000 0.000000 0.000000 -0.000000 -0.664862 90.111100 -6.929150 89.026900 -4.610130 11.135900 15.735700 0.000005 -0.000001 87.518200 76.327300 -88.633000 8.984550 -0.406207 -0.000000 19.545300 -1.272760 -2.016880 16.377300 -0.000001 -0.000001 4.617050 -4.386150 2.781890 6.456720 -0.000001 -0.000000 -11.876700 -2.274950 -4.192670 12.994200 -0.242716 4.980390 -91.117500 5.881020 -79.221600 5.348090 -0.000007 -0.000001 -51.301400 35.715700 -33.341900 24.328600 0.000019 0.000005 7.333270 19.784700 -20.816800 22.291600 -0.000001 0.000005 11.448500 5.205030 2.592740 12.994500 -0.242716 -4.980390 89.536900 2.759400 -80.469900 -5.348130 -0.000001 -0.000004 -69.237700 -26.748300 -74.268200 -24.328900 0.000322 -0.000009 15.296800 0.421365 -88.460900 -22.291500 -0.000108 -0.000004 54.805800 5.349120 -1.351000 -2.192480 -6.469440 -0.000000 -174.414000 -12.459000 -6.171950 39.081100 -0.000007 -0.000012 -0.180534 0.248871 35.958000 40.985400 -0.000006 -0.000013 0.245869 4.226990 -68.363700 11.754300 -0.000000 0.000003 -0.000086 -0.000908 -16.612500 -2.192510 6.469440 -0.000001 176.779000 18.153600 174.456000 -39.081100 -0.002282 -0.040193 -0.092280 0.134859 35.323900 -40.985400 0.000008 0.000006 5.875970 11.299100 -69.152000 -11.754300 -0.000006 -0.000006 -0.003498 -0.046118 -18.448800
